{
    "asset" : {
        "generator" : "Khronos glTF Blender I/O v0.9.2",
        "version" : "2.0"
    },
    "scene" : 0,
    "scenes" : [
        {
            "extras" : {
                "glTF2ExportSettings" : {
                    "export_all_influences" : 1,
                    "export_apply" : 1,
                    "export_bake_skins" : 1,
                    "export_cameras" : 1,
                    "export_current_frame" : 1,
                    "export_extras" : 1,
                    "export_force_sampling" : 1,
                    "export_format" : "GLTF_SEPARATE",
                    "export_image_format" : "PNG",
                    "export_lights" : 1,
                    "export_morph_tangent" : 1,
                    "export_selected" : 1,
                    "export_tangents" : 1
                }
            },
            "name" : "Scene",
            "nodes" : [
                0
            ]
        }
    ],
    "nodes" : [
        {
            "mesh" : 0,
            "name" : "Suzanne",
            "rotation" : [
                -0.22498372197151184,
                0.007286045700311661,
                -0.03153708949685097,
                0.9738247394561768
            ],
            "scale" : [
                1.8585764169692993,
                1.8585764169692993,
                1.8585766553878784
            ]
        }
    ],
    "animations" : [
        {
            "channels" : [
                {
                    "sampler" : 0,
                    "target" : {
                        "node" : 0,
                        "path" : "rotation"
                    }
                }
            ],
            "name" : "SuzanneAction",
            "samplers" : [
                {
                    "input" : 5,
                    "interpolation" : "LINEAR",
                    "output" : 6
                }
            ]
        }
    ],
    "materials" : [
        {
            "emissiveFactor" : [
                0.20013374090194702,
                0.32047319412231445,
                0.5796298980712891
            ],
            "name" : "Material",
            "pbrMetallicRoughness" : {
                "baseColorFactor" : [
                    0.2923220992088318,
                    0.701560378074646,
                    0.9518480896949768,
                    1
                ],
                "metallicFactor" : 0.059090908616781235,
                "roughnessFactor" : 0.8772727251052856
            }
        }
    ],
    "meshes" : [
        {
            "name" : "Suzanne.001",
            "primitives" : [
                {
                    "attributes" : {
                        "POSITION" : 0,
                        "NORMAL" : 1,
                        "TANGENT" : 2,
                        "TEXCOORD_0" : 3
                    },
                    "indices" : 4,
                    "material" : 0
                }
            ]
        }
    ],
    "accessors" : [
        {
            "bufferView" : 0,
            "componentType" : 5126,
            "count" : 31488,
            "max" : [
                1.328185796737671,
                0.9392361640930176,
                0.8224414587020874
            ],
            "min" : [
                -1.328185796737671,
                -0.971822202205658,
                -0.7782661318778992
            ],
            "type" : "VEC3"
        },
        {
            "bufferView" : 1,
            "componentType" : 5126,
            "count" : 31488,
            "type" : "VEC3"
        },
        {
            "bufferView" : 2,
            "componentType" : 5126,
            "count" : 31488,
            "type" : "VEC4"
        },
        {
            "bufferView" : 3,
            "componentType" : 5126,
            "count" : 31488,
            "type" : "VEC2"
        },
        {
            "bufferView" : 4,
            "componentType" : 5123,
            "count" : 47232,
            "type" : "SCALAR"
        },
        {
            "bufferView" : 5,
            "componentType" : 5126,
            "count" : 62,
            "max" : [
                2.5416666666666665
            ],
            "min" : [
                0
            ],
            "type" : "SCALAR"
        },
        {
            "bufferView" : 6,
            "componentType" : 5126,
            "count" : 62,
            "type" : "VEC4"
        }
    ],
    "bufferViews" : [
        {
            "buffer" : 0,
            "byteLength" : 377856,
            "byteOffset" : 0
        },
        {
            "buffer" : 0,
            "byteLength" : 377856,
            "byteOffset" : 377856
        },
        {
            "buffer" : 0,
            "byteLength" : 503808,
            "byteOffset" : 755712
        },
        {
            "buffer" : 0,
            "byteLength" : 251904,
            "byteOffset" : 1259520
        },
        {
            "buffer" : 0,
            "byteLength" : 94464,
            "byteOffset" : 1511424
        },
        {
            "buffer" : 0,
            "byteLength" : 248,
            "byteOffset" : 1605888
        },
        {
            "buffer" : 0,
            "byteLength" : 992,
            "byteOffset" : 1606136
        }
    ],
    "buffers" : [
        {
            "byteLength" : 1607128,
            "uri" : "monk_with_anim.bin"
        }
    ]
}
