{
    "asset" : {
        "generator" : "Khronos glTF Blender I/O v0.9.11",
        "version" : "2.0"
    },
    "scene" : 0,
    "scenes" : [
        {
            "name" : "Scene",
            "nodes" : [
                0,
                1,
                2
            ]
        }
    ],
    "nodes" : [
        {
            "mesh" : 0,
            "name" : "Cube"
        },
        {
            "translation" : [
                4.076245307922363,
                5.903861999511719,
                -1.0054539442062378
            ],
            "name" : "Lamp",
            "rotation" : [
                0.16907575726509094,
                0.7558803558349609,
                -0.27217137813568115,
                0.570947527885437
            ]
        },
        {
            "translation" : [
                7.481131553649902,
                5.34366512298584,
                6.5076398849487305
            ],
            "name" : "Camera",
            "rotation" : [
                0.483536034822464,
                0.33687159419059753,
                -0.20870360732078552,
                0.7804827094078064
            ]
        }
    ],
    "materials" : [
        {
            "name" : "Material",
            "pbrMetallicRoughness" : {
                "roughnessFactor" : 1,
                "baseColorFactor" : [
                    1,
                    0,
                    0.0063684540800750256,
                    1
                ],
                "metallicFactor" : 1,
                "baseColorTexture" : {
                    "texCoord" : 0,
                    "index" : 0
                }
            },
            "emissiveFactor" : [
                0,
                0,
                0
            ]
        }
    ],
    "meshes" : [
        {
            "name" : "Cube",
            "primitives" : [
                {
                    "material" : 0,
                    "attributes" : {
                        "POSITION" : 0,
                        "TEXCOORD_0" : 1,
                        "NORMAL" : 2
                    },
                    "indices" : 3
                }
            ]
        }
    ],
    "textures" : [
        {
            "sampler" : 0,
            "source" : 0
        }
    ],
    "images" : [
        {
            "name" : "Untitled",
            "uri" : "Untitled.png",
            "mimeType" : "image/png"
        }
    ],
    "accessors" : [
        {
            "min" : [
                -1.0000003576278687,
                -1,
                -1.0000003576278687
            ],
            "max" : [
                1.0000004768371582,
                1,
                1.0000005960464478
            ],
            "componentType" : 5126,
            "count" : 24,
            "bufferView" : 0,
            "type" : "VEC3"
        },
        {
            "bufferView" : 1,
            "count" : 24,
            "type" : "VEC2",
            "componentType" : 5126
        },
        {
            "bufferView" : 2,
            "count" : 24,
            "type" : "VEC3",
            "componentType" : 5126
        },
        {
            "bufferView" : 3,
            "count" : 36,
            "type" : "SCALAR",
            "componentType" : 5123
        }
    ],
    "bufferViews" : [
        {
            "byteLength" : 288,
            "buffer" : 0,
            "byteOffset" : 0
        },
        {
            "byteLength" : 192,
            "buffer" : 0,
            "byteOffset" : 288
        },
        {
            "byteLength" : 288,
            "buffer" : 0,
            "byteOffset" : 480
        },
        {
            "byteLength" : 72,
            "buffer" : 0,
            "byteOffset" : 768
        }
    ],
    "samplers" : [
        {
            "minFilter" : 9986,
            "magFilter" : 9729,
            "wrapT" : 33071,
            "wrapS" : 33071
        }
    ],
    "buffers" : [
        {
            "byteLength" : 840,
            "uri" : "untitled.bin"
        }
    ]
}
