{
    "asset" : {
        "generator" : "Khronos glTF Blender I/O v0.9.11",
        "version" : "2.0"
    },
    "scene" : 0,
    "scenes" : [
        {
            "name" : "Scene",
            "nodes" : [
                0,
                1,
                2
            ]
        }
    ],
    "nodes" : [
        {
            "mesh" : 0,
            "translation" : [
                0.44501566886901855,
                0.8383475542068481,
                -0.26186734437942505
            ],
            "name" : "Suzanne",
            "scale" : [
                0.8574987053871155,
                0.8574987649917603,
                0.8574987649917603
            ],
            "rotation" : [
                -0.0819568857550621,
                -0.044618163257837296,
                -0.03619913384318352,
                -0.9949783682823181
            ]
        },
        {
            "translation" : [
                4.076245307922363,
                5.903861999511719,
                -1.0054539442062378
            ],
            "name" : "Lamp",
            "rotation" : [
                0.16907575726509094,
                0.7558803558349609,
                -0.27217137813568115,
                0.570947527885437
            ]
        },
        {
            "translation" : [
                7.481131553649902,
                5.34366512298584,
                6.5076398849487305
            ],
            "name" : "Camera",
            "rotation" : [
                0.483536034822464,
                0.33687159419059753,
                -0.20870360732078552,
                0.7804827094078064
            ]
        }
    ],
    "materials" : [
        {
            "name" : "Material.002",
            "pbrMetallicRoughness" : {
                "roughnessFactor" : 1,
                "baseColorFactor" : [
                    1,
                    1,
                    1,
                    1
                ],
                "metallicFactor" : 1,
                "baseColorTexture" : {
                    "texCoord" : 0,
                    "index" : 0
                }
            },
            "emissiveFactor" : [
                0.4842103123664856,
                0.7836301922798157,
                0.8000000715255737
            ]
        }
    ],
    "meshes" : [
        {
            "name" : "Suzanne",
            "primitives" : [
                {
                    "material" : 0,
                    "attributes" : {
                        "POSITION" : 0,
                        "TEXCOORD_0" : 1,
                        "NORMAL" : 2
                    },
                    "indices" : 3
                }
            ]
        }
    ],
    "textures" : [
        {
            "sampler" : 0,
            "source" : 0
        }
    ],
    "images" : [
        {
            "name" : "1",
            "uri" : "1.png",
            "mimeType" : "image/png"
        }
    ],
    "accessors" : [
        {
            "min" : [
                -1.3671875,
                -0.984375,
                -0.8515625
            ],
            "max" : [
                1.3671875,
                0.984375,
                0.8515625
            ],
            "componentType" : 5126,
            "count" : 1968,
            "bufferView" : 0,
            "type" : "VEC3"
        },
        {
            "bufferView" : 1,
            "count" : 1968,
            "type" : "VEC2",
            "componentType" : 5126
        },
        {
            "bufferView" : 2,
            "count" : 1968,
            "type" : "VEC3",
            "componentType" : 5126
        },
        {
            "bufferView" : 3,
            "count" : 2904,
            "type" : "SCALAR",
            "componentType" : 5123
        }
    ],
    "bufferViews" : [
        {
            "byteLength" : 23616,
            "buffer" : 0,
            "byteOffset" : 0
        },
        {
            "byteLength" : 15744,
            "buffer" : 0,
            "byteOffset" : 23616
        },
        {
            "byteLength" : 23616,
            "buffer" : 0,
            "byteOffset" : 39360
        },
        {
            "byteLength" : 5808,
            "buffer" : 0,
            "byteOffset" : 62976
        }
    ],
    "samplers" : [
        {
            "minFilter" : 9986,
            "magFilter" : 9729,
            "wrapT" : 33071,
            "wrapS" : 33071
        }
    ],
    "buffers" : [
        {
            "byteLength" : 68784,
            "uri" : "untitled.bin"
        }
    ]
}
