{
    "asset" : {
        "generator" : "Khronos glTF Blender I/O v0.9.11",
        "version" : "2.0"
    },
    "scene" : 0,
    "scenes" : [
        {
            "name" : "Scene",
            "nodes" : [
                0
            ]
        }
    ],
    "nodes" : [
        {
            "mesh" : 0,
            "name" : "Cube"
        }
    ],
    "materials" : [
        {
            "emissiveFactor" : [
                0,
                0,
                0
            ],
            "pbrMetallicRoughness" : {
                "metallicFactor" : 1,
                "roughnessFactor" : 1,
                "baseColorFactor" : [
                    1,
                    0,
                    0.009699922986328602,
                    1
                ]
            },
            "name" : "Material.002"
        }
    ],
    "meshes" : [
        {
            "primitives" : [
                {
                    "attributes" : {
                        "POSITION" : 0,
                        "NORMAL" : 1
                    },
                    "indices" : 2,
                    "material" : 0
                }
            ],
            "name" : "Cube"
        }
    ],
    "accessors" : [
        {
            "bufferView" : 0,
            "componentType" : 5126,
            "count" : 24,
            "max" : [
                1.0000004768371582,
                1,
                1.0000005960464478
            ],
            "min" : [
                -1.0000003576278687,
                -1,
                -1.0000003576278687
            ],
            "type" : "VEC3"
        },
        {
            "bufferView" : 1,
            "componentType" : 5126,
            "type" : "VEC3",
            "count" : 24
        },
        {
            "bufferView" : 2,
            "componentType" : 5123,
            "type" : "SCALAR",
            "count" : 36
        }
    ],
    "bufferViews" : [
        {
            "buffer" : 0,
            "byteLength" : 288,
            "byteOffset" : 0
        },
        {
            "buffer" : 0,
            "byteLength" : 288,
            "byteOffset" : 288
        },
        {
            "buffer" : 0,
            "byteLength" : 72,
            "byteOffset" : 576
        }
    ],
    "buffers" : [
        {
            "byteLength" : 648,
            "uri" : "untitled.bin"
        }
    ]
}
