{
    "asset" : {
        "generator" : "Khronos glTF Blender I/O v0.9.11",
        "version" : "2.0"
    },
    "scene" : 0,
    "scenes" : [
        {
            "nodes" : [
                0
            ],
            "name" : "Scene"
        }
    ],
    "nodes" : [
        {
            "mesh" : 0,
            "translation" : [
                0,
                0.001457342877984047,
                0
            ],
            "rotation" : [
                0.7071068286895752,
                0,
                0,
                0.7071067094802856
            ],
            "name" : "cyborg pCylinder1"
        }
    ],
    "materials" : [
        {
            "pbrMetallicRoughness" : {
                "baseColorTexture" : {
                    "index" : 0,
                    "texCoord" : 0
                },
                "metallicFactor" : 1,
                "baseColorFactor" : [
                    1,
                    1,
                    1,
                    1
                ],
                "roughnessFactor" : 1
            },
            "emissiveFactor" : [
                0.24297884106636047,
                0.5978122353553772,
                0.8000000715255737
            ],
            "name" : "Material.006"
        }
    ],
    "meshes" : [
        {
            "primitives" : [
                {
                    "attributes" : {
                        "TEXCOORD_0" : 0,
                        "POSITION" : 1,
                        "NORMAL" : 2
                    },
                    "indices" : 3,
                    "material" : 0
                }
            ],
            "name" : "cyborg pCylinder1"
        }
    ],
    "textures" : [
        {
            "source" : 0,
            "sampler" : 0
        }
    ],
    "images" : [
        {
            "uri" : "cyborg_head.png",
            "mimeType" : "image/png",
            "name" : "cyborg_head"
        }
    ],
    "accessors" : [
        {
            "count" : 9237,
            "type" : "VEC2",
            "componentType" : 5126,
            "bufferView" : 0
        },
        {
            "count" : 9237,
            "type" : "VEC3",
            "componentType" : 5126,
            "max" : [
                6.060219764709473,
                3.5830090045928955,
                0.022659000009298325
            ],
            "bufferView" : 1,
            "min" : [
                -3.020134925842285,
                -1.5535039901733398,
                -3.0052170753479004
            ]
        },
        {
            "count" : 9237,
            "type" : "VEC3",
            "componentType" : 5126,
            "bufferView" : 2
        },
        {
            "count" : 19152,
            "type" : "SCALAR",
            "componentType" : 5123,
            "bufferView" : 3
        }
    ],
    "bufferViews" : [
        {
            "byteOffset" : 0,
            "byteLength" : 73896,
            "buffer" : 0
        },
        {
            "byteOffset" : 73896,
            "byteLength" : 110844,
            "buffer" : 0
        },
        {
            "byteOffset" : 184740,
            "byteLength" : 110844,
            "buffer" : 0
        },
        {
            "byteOffset" : 295584,
            "byteLength" : 38304,
            "buffer" : 0
        }
    ],
    "samplers" : [
        {
            "wrapS" : 33071,
            "wrapT" : 33071,
            "minFilter" : 9986,
            "magFilter" : 9729
        }
    ],
    "buffers" : [
        {
            "uri" : "cyborg_head.bin",
            "byteLength" : 333888
        }
    ]
}
