{
    "asset" : {
        "version" : "2.0",
        "generator" : "Khronos glTF Blender I/O v0.9.11"
    },
    "scene" : 0,
    "scenes" : [
        {
            "nodes" : [
                0,
                1,
                2
            ],
            "name" : "Scene"
        }
    ],
    "nodes" : [
        {
            "rotation" : [
                0.7071068286895752,
                0,
                0,
                0.7071067094802856
            ],
            "name" : "flesh",
            "mesh" : 0
        },
        {
            "translation" : [
                4.076245307922363,
                5.903861999511719,
                -1.0054539442062378
            ],
            "rotation" : [
                0.16907575726509094,
                0.7558803558349609,
                -0.27217137813568115,
                0.570947527885437
            ],
            "name" : "Lamp"
        },
        {
            "translation" : [
                7.481131553649902,
                5.34366512298584,
                6.5076398849487305
            ],
            "rotation" : [
                0.483536034822464,
                0.33687159419059753,
                -0.20870360732078552,
                0.7804827094078064
            ],
            "name" : "Camera"
        }
    ],
    "materials" : [
        {
            "emissiveFactor" : [
                0.24297884106636047,
                0.5978122353553772,
                0.8000000715255737
            ],
            "pbrMetallicRoughness" : {
                "metallicFactor" : 1,
                "baseColorFactor" : [
                    1,
                    1,
                    1,
                    1
                ],
                "roughnessFactor" : 1,
                "baseColorTexture" : {
                    "texCoord" : 0,
                    "index" : 0
                }
            },
            "name" : "Material.010"
        }
    ],
    "meshes" : [
        {
            "primitives" : [
                {
                    "indices" : 3,
                    "attributes" : {
                        "NORMAL" : 0,
                        "POSITION" : 1,
                        "TEXCOORD_0" : 2
                    },
                    "material" : 0
                }
            ],
            "name" : "(null)"
        }
    ],
    "textures" : [
        {
            "source" : 0,
            "sampler" : 0
        }
    ],
    "images" : [
        {
            "uri" : "flesh.png",
            "name" : "flesh",
            "mimeType" : "image/png"
        }
    ],
    "accessors" : [
        {
            "type" : "VEC3",
            "bufferView" : 0,
            "componentType" : 5126,
            "count" : 903
        },
        {
            "type" : "VEC3",
            "max" : [
                1.7895324230194092,
                1.5765926837921143,
                4.506248950958252
            ],
            "componentType" : 5126,
            "bufferView" : 1,
            "min" : [
                -1.7708985805511475,
                -1.7892701625823975,
                -4.899795055389404
            ],
            "count" : 903
        },
        {
            "type" : "VEC2",
            "bufferView" : 2,
            "componentType" : 5126,
            "count" : 903
        },
        {
            "type" : "SCALAR",
            "bufferView" : 3,
            "componentType" : 5123,
            "count" : 3030
        }
    ],
    "bufferViews" : [
        {
            "byteLength" : 10836,
            "buffer" : 0,
            "byteOffset" : 0
        },
        {
            "byteLength" : 10836,
            "buffer" : 0,
            "byteOffset" : 10836
        },
        {
            "byteLength" : 7224,
            "buffer" : 0,
            "byteOffset" : 21672
        },
        {
            "byteLength" : 6060,
            "buffer" : 0,
            "byteOffset" : 28896
        }
    ],
    "samplers" : [
        {
            "wrapS" : 33071,
            "minFilter" : 9986,
            "wrapT" : 33071,
            "magFilter" : 9729
        }
    ],
    "buffers" : [
        {
            "byteLength" : 34956,
            "uri" : "flesh.bin"
        }
    ]
}
