{
    "asset" : {
        "generator" : "Khronos glTF Blender I/O v0.9.11",
        "version" : "2.0"
    },
    "scene" : 0,
    "scenes" : [
        {
            "name" : "Scene",
            "nodes" : [
                0
            ]
        }
    ],
    "nodes" : [
        {
            "scale" : [
                0.014999999664723873,
                0.014999999664723873,
                0.014999999664723873
            ],
            "mesh" : 0,
            "name" : "robot",
            "rotation" : [
                0.7071068286895752,
                0,
                0,
                0.7071067094802856
            ]
        }
    ],
    "materials" : [
        {
            "emissiveFactor" : [
                0.24297884106636047,
                0.5978122353553772,
                0.8000000715255737
            ],
            "pbrMetallicRoughness" : {
                "baseColorTexture" : {
                    "index" : 0,
                    "texCoord" : 0
                },
                "metallicFactor" : 1,
                "roughnessFactor" : 1,
                "baseColorFactor" : [
                    1,
                    1,
                    1,
                    1
                ]
            },
            "name" : "Material.006"
        }
    ],
    "meshes" : [
        {
            "name" : "Object017",
            "primitives" : [
                {
                    "indices" : 3,
                    "material" : 0,
                    "attributes" : {
                        "POSITION" : 0,
                        "NORMAL" : 1,
                        "TEXCOORD_0" : 2
                    }
                }
            ]
        }
    ],
    "textures" : [
        {
            "source" : 0,
            "sampler" : 0
        }
    ],
    "images" : [
        {
            "name" : "robot",
            "uri" : "robot.png",
            "mimeType" : "image/png"
        }
    ],
    "accessors" : [
        {
            "bufferView" : 0,
            "componentType" : 5126,
            "count" : 12269,
            "min" : [
                -112.47511291503906,
                -56.890724182128906,
                -669.1925048828125
            ],
            "type" : "VEC3",
            "max" : [
                113.15463256835938,
                72.13619232177734,
                -12.37042236328125
            ]
        },
        {
            "bufferView" : 1,
            "componentType" : 5126,
            "count" : 12269,
            "type" : "VEC3"
        },
        {
            "bufferView" : 2,
            "componentType" : 5126,
            "count" : 12269,
            "type" : "VEC2"
        },
        {
            "bufferView" : 3,
            "componentType" : 5123,
            "count" : 23460,
            "type" : "SCALAR"
        }
    ],
    "bufferViews" : [
        {
            "byteLength" : 147228,
            "buffer" : 0,
            "byteOffset" : 0
        },
        {
            "byteLength" : 147228,
            "buffer" : 0,
            "byteOffset" : 147228
        },
        {
            "byteLength" : 98152,
            "buffer" : 0,
            "byteOffset" : 294456
        },
        {
            "byteLength" : 46920,
            "buffer" : 0,
            "byteOffset" : 392608
        }
    ],
    "samplers" : [
        {
            "magFilter" : 9729,
            "wrapT" : 33071,
            "minFilter" : 9986,
            "wrapS" : 33071
        }
    ],
    "buffers" : [
        {
            "byteLength" : 439528,
            "uri" : "robot.bin"
        }
    ]
}
