{
    "asset" : {
        "generator" : "Khronos glTF Blender I/O v0.9.11",
        "version" : "2.0"
    },
    "scene" : 0,
    "scenes" : [
        {
            "name" : "Scene",
            "nodes" : [
                0,
                1,
                2
            ]
        }
    ],
    "nodes" : [
        {
            "rotation" : [
                0.7071068286895752,
                0,
                0,
                0.7071067094802856
            ],
            "mesh" : 0,
            "name" : "Bip01.003"
        },
        {
            "rotation" : [
                0.16907575726509094,
                0.7558803558349609,
                -0.27217137813568115,
                0.570947527885437
            ],
            "translation" : [
                4.076245307922363,
                5.903861999511719,
                -1.0054539442062378
            ],
            "name" : "Lamp"
        },
        {
            "rotation" : [
                0.483536034822464,
                0.33687159419059753,
                -0.20870360732078552,
                0.7804827094078064
            ],
            "translation" : [
                7.481131553649902,
                5.34366512298584,
                6.5076398849487305
            ],
            "name" : "Camera"
        }
    ],
    "materials" : [
        {
            "emissiveFactor" : [
                0.24297884106636047,
                0.5978122353553772,
                0.8000000715255737
            ],
            "pbrMetallicRoughness" : {
                "baseColorTexture" : {
                    "texCoord" : 0,
                    "index" : 0
                },
                "metallicFactor" : 1,
                "roughnessFactor" : 1,
                "baseColorFactor" : [
                    0.10922420024871826,
                    0.8095173835754395,
                    1,
                    1
                ]
            },
            "name" : "Material.009"
        }
    ],
    "meshes" : [
        {
            "primitives" : [
                {
                    "attributes" : {
                        "POSITION" : 0,
                        "TEXCOORD_0" : 1,
                        "NORMAL" : 2
                    },
                    "indices" : 3,
                    "material" : 0
                }
            ],
            "name" : "Bip01.003"
        }
    ],
    "textures" : [
        {
            "sampler" : 0,
            "source" : 0
        }
    ],
    "images" : [
        {
            "mimeType" : "image/png",
            "name" : "skeleton_sitdown",
            "uri" : "skeleton_sitdown.png"
        }
    ],
    "accessors" : [
        {
            "min" : [
                -4.171350955963135,
                -2.5080337524414062,
                -4.520866870880127
            ],
            "componentType" : 5126,
            "type" : "VEC3",
            "count" : 3535,
            "max" : [
                3.340883731842041,
                4.056075572967529,
                3.907510995864868
            ],
            "bufferView" : 0
        },
        {
            "bufferView" : 1,
            "componentType" : 5126,
            "type" : "VEC2",
            "count" : 3535
        },
        {
            "bufferView" : 2,
            "componentType" : 5126,
            "type" : "VEC3",
            "count" : 3535
        },
        {
            "bufferView" : 3,
            "componentType" : 5123,
            "type" : "SCALAR",
            "count" : 6762
        }
    ],
    "bufferViews" : [
        {
            "buffer" : 0,
            "byteLength" : 42420,
            "byteOffset" : 0
        },
        {
            "buffer" : 0,
            "byteLength" : 28280,
            "byteOffset" : 42420
        },
        {
            "buffer" : 0,
            "byteLength" : 42420,
            "byteOffset" : 70700
        },
        {
            "buffer" : 0,
            "byteLength" : 13524,
            "byteOffset" : 113120
        }
    ],
    "samplers" : [
        {
            "wrapT" : 33071,
            "minFilter" : 9986,
            "wrapS" : 33071,
            "magFilter" : 9729
        }
    ],
    "buffers" : [
        {
            "uri" : "skeleton_sitdown.bin",
            "byteLength" : 126644
        }
    ]
}
