{
    "asset" : {
        "generator" : "Khronos glTF Blender I/O v0.9.11",
        "version" : "2.0"
    },
    "scene" : 0,
    "scenes" : [
        {
            "nodes" : [
                0
            ],
            "name" : "Scene"
        }
    ],
    "nodes" : [
        {
            "name" : "Bip01.003",
            "mesh" : 0,
            "rotation" : [
                0.7071068286895752,
                0,
                0,
                0.7071067094802856
            ]
        }
    ],
    "materials" : [
        {
            "name" : "Material.009",
            "pbrMetallicRoughness" : {
                "metallicFactor" : 1,
                "baseColorFactor" : [
                    0.10922420024871826,
                    0.8095173835754395,
                    1,
                    1
                ],
                "roughnessFactor" : 1,
                "baseColorTexture" : {
                    "index" : 0,
                    "texCoord" : 0
                }
            },
            "emissiveFactor" : [
                0.24297884106636047,
                0.5978122353553772,
                0.8000000715255737
            ]
        }
    ],
    "meshes" : [
        {
            "primitives" : [
                {
                    "material" : 0,
                    "indices" : 3,
                    "attributes" : {
                        "TEXCOORD_0" : 0,
                        "POSITION" : 1,
                        "NORMAL" : 2
                    }
                }
            ],
            "name" : "Bip01.003"
        }
    ],
    "textures" : [
        {
            "sampler" : 0,
            "source" : 0
        }
    ],
    "images" : [
        {
            "name" : "skeleton_sitdown",
            "uri" : "skeleton_sitdown.png",
            "mimeType" : "image/png"
        }
    ],
    "accessors" : [
        {
            "type" : "VEC2",
            "bufferView" : 0,
            "componentType" : 5126,
            "count" : 3535
        },
        {
            "type" : "VEC3",
            "bufferView" : 1,
            "componentType" : 5126,
            "min" : [
                -4.171350955963135,
                -2.5080337524414062,
                -4.520866870880127
            ],
            "max" : [
                3.340883731842041,
                4.056075572967529,
                3.907510995864868
            ],
            "count" : 3535
        },
        {
            "type" : "VEC3",
            "bufferView" : 2,
            "componentType" : 5126,
            "count" : 3535
        },
        {
            "type" : "SCALAR",
            "bufferView" : 3,
            "componentType" : 5123,
            "count" : 6762
        }
    ],
    "bufferViews" : [
        {
            "byteLength" : 28280,
            "buffer" : 0,
            "byteOffset" : 0
        },
        {
            "byteLength" : 42420,
            "buffer" : 0,
            "byteOffset" : 28280
        },
        {
            "byteLength" : 42420,
            "buffer" : 0,
            "byteOffset" : 70700
        },
        {
            "byteLength" : 13524,
            "buffer" : 0,
            "byteOffset" : 113120
        }
    ],
    "samplers" : [
        {
            "wrapS" : 33071,
            "minFilter" : 9986,
            "wrapT" : 33071,
            "magFilter" : 9729
        }
    ],
    "buffers" : [
        {
            "byteLength" : 126644,
            "uri" : "skeleton_sitdown.bin"
        }
    ]
}
