{
    "asset" : {
        "generator" : "Khronos glTF Blender I/O v0.9.11",
        "version" : "2.0"
    },
    "scene" : 0,
    "scenes" : [
        {
            "name" : "Scene",
            "nodes" : [
                0
            ]
        }
    ],
    "nodes" : [
        {
            "name" : "Low_Poly",
            "rotation" : [
                0.7071068286895752,
                0,
                0,
                0.7071067094802856
            ],
            "mesh" : 0
        }
    ],
    "materials" : [
        {
            "name" : "Material.006",
            "emissiveFactor" : [
                0.24297884106636047,
                0.5978122353553772,
                0.8000000715255737
            ],
            "pbrMetallicRoughness" : {
                "roughnessFactor" : 1,
                "baseColorFactor" : [
                    1,
                    1,
                    1,
                    1
                ],
                "metallicFactor" : 1,
                "baseColorTexture" : {
                    "texCoord" : 0,
                    "index" : 0
                }
            }
        }
    ],
    "meshes" : [
        {
            "name" : "Low_Poly",
            "primitives" : [
                {
                    "material" : 0,
                    "attributes" : {
                        "POSITION" : 0,
                        "TEXCOORD_0" : 1,
                        "NORMAL" : 2
                    },
                    "indices" : 3
                }
            ]
        }
    ],
    "textures" : [
        {
            "source" : 0,
            "sampler" : 0
        }
    ],
    "images" : [
        {
            "name" : "virus",
            "uri" : "virus.png",
            "mimeType" : "image/png"
        }
    ],
    "accessors" : [
        {
            "bufferView" : 0,
            "count" : 9804,
            "componentType" : 5126,
            "min" : [
                -44.54540252685547,
                -26.57592010498047,
                -23.695316314697266
            ],
            "max" : [
                9.213211059570312,
                30.31942367553711,
                33.9808349609375
            ],
            "type" : "VEC3"
        },
        {
            "componentType" : 5126,
            "type" : "VEC2",
            "bufferView" : 1,
            "count" : 9804
        },
        {
            "componentType" : 5126,
            "type" : "VEC3",
            "bufferView" : 2,
            "count" : 9804
        },
        {
            "componentType" : 5123,
            "type" : "SCALAR",
            "bufferView" : 3,
            "count" : 51228
        }
    ],
    "bufferViews" : [
        {
            "buffer" : 0,
            "byteLength" : 117648,
            "byteOffset" : 0
        },
        {
            "buffer" : 0,
            "byteLength" : 78432,
            "byteOffset" : 117648
        },
        {
            "buffer" : 0,
            "byteLength" : 117648,
            "byteOffset" : 196080
        },
        {
            "buffer" : 0,
            "byteLength" : 102456,
            "byteOffset" : 313728
        }
    ],
    "samplers" : [
        {
            "wrapT" : 33071,
            "wrapS" : 33071,
            "minFilter" : 9986,
            "magFilter" : 9729
        }
    ],
    "buffers" : [
        {
            "uri" : "virus.bin",
            "byteLength" : 416184
        }
    ]
}
