{
    "asset" : {
        "version" : "2.0",
        "generator" : "Khronos glTF Blender I/O v0.9.11"
    },
    "scene" : 0,
    "scenes" : [
        {
            "nodes" : [
                0
            ],
            "name" : "Scene"
        }
    ],
    "nodes" : [
        {
            "mesh" : 0,
            "name" : "Low_Poly",
            "rotation" : [
                0.7071068286895752,
                0,
                0,
                0.7071067094802856
            ]
        }
    ],
    "materials" : [
        {
            "emissiveFactor" : [
                0.24297884106636047,
                0.5978122353553772,
                0.8000000715255737
            ],
            "name" : "Material.006",
            "pbrMetallicRoughness" : {
                "metallicFactor" : 1,
                "baseColorFactor" : [
                    1,
                    1,
                    1,
                    1
                ],
                "baseColorTexture" : {
                    "index" : 0,
                    "texCoord" : 0
                },
                "roughnessFactor" : 1
            }
        }
    ],
    "meshes" : [
        {
            "primitives" : [
                {
                    "attributes" : {
                        "TEXCOORD_0" : 0,
                        "NORMAL" : 1,
                        "POSITION" : 2
                    },
                    "material" : 0,
                    "indices" : 3
                }
            ],
            "name" : "Low_Poly"
        }
    ],
    "textures" : [
        {
            "sampler" : 0,
            "source" : 0
        }
    ],
    "images" : [
        {
            "mimeType" : "image/png",
            "name" : "virus",
            "uri" : "virus.png"
        }
    ],
    "accessors" : [
        {
            "bufferView" : 0,
            "type" : "VEC2",
            "componentType" : 5126,
            "count" : 4716
        },
        {
            "bufferView" : 1,
            "type" : "VEC3",
            "componentType" : 5126,
            "count" : 4716
        },
        {
            "bufferView" : 2,
            "max" : [
                2.789043426513672,
                2.7302629947662354,
                2.8539352416992188
            ],
            "type" : "VEC3",
            "count" : 4716,
            "min" : [
                -2.6148204803466797,
                -2.992814779281616,
                -2.9476852416992188
            ],
            "componentType" : 5126
        },
        {
            "bufferView" : 3,
            "type" : "SCALAR",
            "componentType" : 5123,
            "count" : 25608
        }
    ],
    "bufferViews" : [
        {
            "buffer" : 0,
            "byteOffset" : 0,
            "byteLength" : 37728
        },
        {
            "buffer" : 0,
            "byteOffset" : 37728,
            "byteLength" : 56592
        },
        {
            "buffer" : 0,
            "byteOffset" : 94320,
            "byteLength" : 56592
        },
        {
            "buffer" : 0,
            "byteOffset" : 150912,
            "byteLength" : 51216
        }
    ],
    "samplers" : [
        {
            "minFilter" : 9986,
            "wrapT" : 33071,
            "magFilter" : 9729,
            "wrapS" : 33071
        }
    ],
    "buffers" : [
        {
            "uri" : "virus.bin",
            "byteLength" : 202128
        }
    ]
}
